<?xml version="1.0" standalone="no"?>
<!DOCTYPE svg PUBLIC "-//W3C//DTD SVG 20010904//EN"
 "http://www.w3.org/TR/2001/REC-SVG-20010904/DTD/svg10.dtd">
<svg version="1.0" xmlns="http://www.w3.org/2000/svg"
 viewBox="0 0 1024.000000 1024.000000"
 preserveAspectRatio="xMidYMid meet">

<g transform="translate(0.000000,1024.000000) scale(0.100000,-0.100000)"
fill="#000000" stroke="none">
<path d="M5647 9166 c-47 -35 -155 -120 -240 -188 -85 -67 -192 -151 -238
-184 -122 -90 -340 -253 -447 -337 -101 -78 -265 -198 -378 -276 l-71 -50 -6
-63 c-3 -35 -18 -96 -32 -137 -16 -45 -24 -84 -20 -99 7 -29 64 -132 73 -132
7 0 128 88 330 240 54 41 173 129 263 195 309 227 414 305 539 400 69 52 167
126 219 164 l94 68 56 -44 c31 -25 97 -78 146 -119 134 -109 206 -165 463
-360 129 -97 275 -211 325 -254 51 -42 135 -108 188 -147 53 -40 143 -109 200
-155 57 -46 135 -106 173 -133 126 -92 200 -148 370 -285 93 -74 228 -181 300
-238 72 -56 187 -151 255 -210 67 -59 129 -108 136 -110 7 -2 41 15 76 37 66
42 259 174 259 177 0 1 -46 37 -102 80 -57 43 -155 120 -219 170 -152 121
-261 205 -564 435 -310 235 -386 293 -550 425 -158 126 -474 373 -600 469 -87
66 -260 205 -399 321 -34 27 -95 75 -136 106 -41 31 -140 110 -219 177 -80 66
-148 121 -151 121 -4 0 -45 -29 -93 -64z"/>
<path d="M2542 9169 c-78 -39 -146 -174 -203 -402 -59 -237 -73 -478 -43 -735
9 -75 16 -178 17 -229 l2 -93 -113 -51 c-125 -57 -195 -112 -223 -174 -38 -84
-16 -259 56 -446 58 -151 110 -209 189 -209 25 0 47 -10 81 -37 l45 -38 -4
-150 c-6 -181 -28 -409 -55 -565 -15 -87 -17 -116 -8 -122 19 -12 87 -30 142
-37 l50 -6 1 -220 c1 -232 7 -285 54 -480 26 -105 58 -301 106 -650 23 -165
42 -349 59 -555 9 -107 22 -268 30 -357 19 -225 8 -255 -110 -289 -91 -26
-162 -62 -196 -102 -99 -112 -138 -336 -77 -443 38 -68 55 -73 318 -80 396
-12 517 11 583 110 42 63 86 158 102 216 17 67 78 457 100 640 9 72 27 202 40
290 14 88 32 216 40 285 9 68 17 126 18 127 2 1 21 -2 42 -7 22 -5 52 -11 66
-14 23 -5 27 -12 32 -58 3 -29 13 -107 21 -173 8 -66 29 -270 47 -452 l33
-333 -90 -84 c-99 -92 -123 -132 -144 -241 -9 -45 -9 -80 -1 -140 14 -98 44
-151 103 -185 l43 -25 305 3 c348 3 392 10 447 68 17 19 47 64 65 101 29 59
33 77 32 138 -2 75 -33 209 -66 288 l-21 48 26 217 c15 119 32 278 38 352 6
74 17 184 25 244 8 61 14 128 15 150 1 40 1 40 10 11 4 -16 11 -51 14 -76 8
-65 67 -160 152 -245 88 -89 187 -159 316 -226 88 -45 97 -52 97 -78 0 -62
-37 -201 -85 -322 -4 -11 -23 -19 -53 -24 -171 -25 -265 -119 -281 -282 -10
-102 -3 -198 17 -214 11 -10 86 -14 288 -16 314 -4 367 3 415 51 57 57 190
367 300 703 34 104 65 196 70 205 7 13 20 10 91 -25 46 -23 124 -54 173 -70
50 -16 93 -31 97 -35 6 -5 38 -275 38 -321 0 -11 -18 -29 -44 -44 -103 -60
-156 -163 -157 -305 -1 -108 13 -161 54 -205 29 -31 39 -34 107 -41 41 -4 183
-5 315 -3 261 4 288 9 349 66 68 64 77 133 57 477 -13 219 -24 551 -18 545 3
-3 11 -67 18 -142 6 -76 17 -142 23 -147 25 -20 259 -82 354 -93 187 -22 395
14 557 94 126 63 330 237 355 304 19 48 15 50 -102 73 -124 25 -314 86 -423
136 -136 64 -406 229 -575 352 -199 144 -330 276 -625 628 -122 146 -346 399
-409 461 -65 64 -279 228 -416 318 -140 92 -363 221 -556 322 -202 105 -483
263 -549 307 -33 22 -85 61 -115 87 -30 25 -69 56 -86 68 -29 20 -31 26 -37
99 -8 99 -87 362 -162 536 -6 14 -2 17 24 17 50 0 172 31 177 44 3 7 -25 64
-62 127 -60 102 -107 196 -191 381 l-27 58 32 97 c75 232 83 364 38 613 -44
239 -155 528 -233 606 -88 88 -209 60 -322 -75 -97 -117 -236 -383 -277 -529
l-17 -61 -51 -5 c-28 -3 -85 -7 -127 -9 l-75 -4 -17 66 c-23 87 -96 286 -141
385 -66 145 -160 255 -233 275 -48 14 -41 15 -91 -10z m143 -294 c47 -81 152
-327 169 -397 6 -27 5 -28 -33 -28 l-40 0 -11 58 c-19 100 -59 230 -86 285
-25 50 -70 107 -85 107 -3 0 -9 -19 -13 -42 -10 -65 -49 -203 -54 -189 -2 6
-11 2 -22 -11 -18 -21 -19 -22 -15 -3 2 11 9 49 15 85 6 36 25 109 41 164 16
54 29 101 29 104 0 19 60 -57 105 -133z m1116 54 c68 -135 139 -387 159 -560
14 -119 1 -261 -31 -341 l-11 -27 -54 61 c-108 121 -142 245 -124 458 11 146
25 231 39 259 16 29 14 106 -3 120 -23 20 -53 -3 -100 -77 -170 -264 -200
-477 -96 -689 49 -100 115 -170 198 -212 55 -28 62 -35 68 -68 10 -52 50 -143
135 -308 70 -137 72 -140 48 -143 -13 -1 -57 9 -98 23 -90 30 -105 32 -93 8
25 -47 75 -256 80 -330 7 -111 2 -120 -42 -78 -19 18 -63 52 -98 75 l-63 42
-6 -89 c-12 -166 -52 -268 -153 -388 -37 -44 -79 -90 -93 -102 -43 -36 -19
-61 52 -53 68 7 251 149 297 231 12 21 25 39 29 39 3 0 12 -14 19 -31 10 -24
11 -44 1 -97 -25 -138 -98 -269 -236 -422 -56 -63 -84 -102 -83 -115 5 -35 58
-22 152 35 84 52 165 134 243 250 43 64 107 195 129 263 10 31 21 57 24 57 4
0 10 -48 13 -107 9 -182 -18 -363 -70 -468 -32 -62 -50 -80 -88 -83 -16 -1
-32 -5 -36 -10 -4 -4 -49 -53 -101 -108 -177 -193 -551 -499 -633 -520 -50
-12 -369 260 -470 401 -23 33 -59 94 -80 135 -55 113 -71 124 -139 95 -18 -8
-19 -5 -12 46 8 66 22 119 36 139 9 13 14 10 33 -14 51 -69 105 -120 142 -137
46 -20 125 -36 125 -24 0 4 -24 38 -53 74 -65 80 -138 192 -185 285 -30 59
-36 82 -40 151 -4 80 -4 82 19 88 45 10 113 -9 177 -51 117 -76 271 -83 405
-19 117 55 251 194 264 272 6 35 5 36 -21 29 -34 -8 -33 0 9 49 133 155 123
353 -24 446 -25 16 -95 48 -154 70 -136 51 -209 90 -287 152 l-61 50 -122 -60
c-67 -32 -150 -69 -183 -81 l-61 -22 -58 31 c-32 17 -64 31 -72 31 -30 0 0 18
79 48 154 59 230 103 261 154 55 88 53 164 -4 212 -41 35 -92 34 -162 -3 l-54
-29 4 37 c6 49 54 147 98 198 42 50 154 108 233 121 28 5 52 7 52 3 -1 -3 -9
-31 -20 -61 -11 -30 -19 -63 -20 -72 0 -25 42 -23 65 2 34 37 127 93 187 112
33 10 89 18 125 18 61 0 68 -2 105 -36 24 -21 44 -32 49 -27 5 5 18 42 30 83
28 103 111 318 165 430 48 99 81 147 148 217 47 50 53 48 97 -38z m-1223
-1092 c3 -23 -2 -30 -30 -41 -18 -8 -36 -12 -40 -10 -15 9 -8 44 13 65 27 27
53 21 57 -14z m-237 -365 c54 -35 76 -59 83 -92 10 -43 -6 -56 -51 -41 -59 20
-107 -4 -133 -64 -11 -25 -24 -45 -30 -45 -15 0 -100 121 -100 142 0 33 29 77
63 94 78 41 111 42 168 6z m825 -416 c-38 -70 -198 -156 -351 -187 -188 -39
-364 -9 -464 78 -37 32 -51 52 -49 67 4 31 30 30 86 -3 28 -16 72 -37 97 -46
160 -54 431 -8 616 104 73 45 94 40 65 -13z m1162 -821 c73 -287 82 -520 32
-787 -13 -66 -41 -155 -78 -248 -17 -41 -28 -78 -26 -82 9 -14 96 38 193 112
51 39 95 69 98 66 3 -3 0 -27 -5 -53 -6 -26 -23 -111 -37 -188 -15 -77 -35
-169 -45 -205 -10 -36 -26 -119 -35 -185 -8 -66 -22 -157 -31 -203 -8 -45 -21
-162 -29 -260 -8 -97 -28 -296 -44 -442 -16 -146 -33 -319 -36 -385 -7 -120
-7 -120 30 -230 29 -87 36 -121 33 -162 -5 -59 -43 -118 -86 -134 -37 -14
-148 -23 -155 -13 -10 17 12 118 37 168 14 28 23 52 20 55 -2 2 -34 4 -71 3
-106 -3 -163 -51 -178 -149 -14 -102 -9 -96 -90 -91 -39 3 -77 8 -83 12 -16
10 -15 107 2 181 12 51 22 67 65 106 33 31 74 56 121 74 38 15 70 30 70 33 0
4 -5 25 -10 47 -5 22 -23 180 -40 350 -36 368 -86 724 -135 965 -19 96 -49
241 -65 322 -42 209 -68 253 -148 246 l-37 -3 -3 -113 c-3 -111 27 -382 48
-437 12 -33 4 -32 -107 4 -278 92 -467 225 -669 471 -71 86 -102 145 -134 250
-22 73 -33 210 -18 225 4 4 47 -28 95 -72 99 -90 297 -240 362 -273 l42 -22
102 67 c56 38 163 112 238 165 75 54 158 109 185 123 124 63 278 204 378 346
65 92 141 253 181 384 15 49 28 87 30 85 1 -2 16 -57 33 -123z m347 -120 c28
-17 76 -43 107 -58 31 -15 60 -33 64 -40 6 -9 4 -9 -7 -1 -8 6 -23 14 -34 17
l-20 7 20 -16 c20 -16 20 -16 -3 -11 -15 4 -22 1 -19 -6 4 -12 24 -12 77 -1
19 3 22 2 10 -6 -12 -8 -10 -9 10 -8 32 2 222 -100 213 -114 -3 -7 -1 -8 5 -4
6 4 34 -5 62 -19 41 -21 49 -29 40 -40 -7 -8 -7 -15 -1 -19 5 -3 8 -16 7 -29
-2 -17 3 -22 20 -23 l24 -2 -23 19 c-12 10 -17 18 -11 19 6 0 21 -9 34 -20 13
-11 28 -20 34 -20 6 0 5 4 -3 9 -8 5 -10 14 -6 21 5 8 4 11 -3 7 -14 -9 -43 3
-36 14 3 5 -1 6 -9 3 -18 -6 -32 12 -17 21 6 4 44 -10 83 -31 103 -54 343
-214 339 -226 -2 -6 4 -8 13 -5 8 4 15 2 15 -2 0 -5 16 -18 35 -30 20 -11 67
-46 106 -77 68 -56 69 -57 52 -77 -10 -11 -12 -17 -5 -13 8 5 22 0 34 -11 21
-18 21 -18 9 4 -16 32 -13 41 7 18 10 -11 27 -25 37 -31 28 -16 87 -95 81
-109 -2 -7 1 -18 7 -24 6 -6 8 -11 3 -11 -4 0 -19 14 -33 30 -14 17 -68 62
-120 101 -51 38 -91 74 -88 79 3 5 0 7 -7 5 -7 -3 -61 25 -118 63 -58 37 -141
87 -184 111 -102 56 -183 107 -192 123 -5 7 4 5 18 -4 15 -10 29 -14 32 -10 7
12 -26 38 -57 46 -29 7 -46 -8 -21 -18 9 -4 14 -9 11 -12 -9 -9 -48 22 -39 31
4 4 1 6 -7 3 -13 -4 -372 171 -395 193 -6 5 -16 9 -23 9 -26 0 -125 43 -143
62 -17 18 -60 127 -60 151 0 4 6 5 13 1 6 -4 35 -22 62 -39z m624 -1255 c57
-117 197 -329 284 -432 116 -135 260 -245 457 -351 174 -94 357 -130 470 -93
l53 17 46 -28 46 -29 7 -109 c4 -61 17 -225 28 -365 11 -140 22 -319 23 -397
2 -137 1 -142 -22 -167 -22 -23 -32 -26 -97 -26 -88 0 -92 8 -58 104 28 80 25
82 -67 66 -91 -16 -129 -58 -129 -140 l0 -40 -65 0 c-61 0 -65 1 -71 25 -3 14
-4 52 -2 84 9 130 127 201 332 201 l56 0 -17 26 c-17 27 -103 74 -135 74 -9 0
-20 5 -23 10 -10 16 -34 275 -35 362 0 87 -5 93 -85 118 -57 18 -375 155 -470
202 -101 51 -260 154 -348 226 -71 57 -171 181 -211 261 -13 25 -38 86 -55
134 -35 99 -38 158 -21 325 14 130 18 136 43 82 11 -25 41 -88 66 -140z
m-2063 -475 c39 -25 74 -52 78 -60 6 -17 -6 -173 -34 -415 -11 -96 -25 -220
-30 -275 -27 -257 -65 -490 -92 -565 -43 -116 -100 -162 -230 -184 -48 -9 -95
-13 -103 -10 -21 8 -19 50 5 120 11 32 18 64 16 71 -8 21 -115 17 -150 -6 -38
-25 -64 -66 -71 -115 -12 -79 -12 -79 -66 -74 -27 3 -53 8 -56 12 -4 4 -6 35
-5 69 6 147 88 224 275 257 92 16 96 18 113 58 43 99 44 108 29 370 -8 137
-24 354 -35 483 -11 129 -25 286 -30 349 -6 63 -16 157 -23 208 -7 51 -12 94
-10 96 2 2 81 -75 175 -170 119 -121 193 -188 244 -219z m1614 181 c0 -15 -57
-43 -67 -33 -9 10 16 35 40 40 12 2 23 5 25 6 1 0 2 -5 2 -13z m2510 -596 c8
-5 11 -10 5 -10 -5 0 -17 5 -25 10 -8 5 -10 10 -5 10 6 0 17 -5 25 -10z m60
-36 c0 -2 -9 0 -20 6 -11 6 -20 13 -20 16 0 2 9 0 20 -6 11 -6 20 -13 20 -16z
m275 -124 c13 -6 15 -9 5 -9 -8 0 -22 4 -30 9 -18 12 -2 12 25 0z m-2740 -742
c10 -23 14 -27 15 -14 0 19 1 19 13 2 12 -16 14 -16 26 -2 8 9 20 16 27 16 10
0 8 -6 -6 -20 -11 -11 -26 -40 -32 -65 -13 -47 -24 -53 -75 -39 -18 5 -23 14
-23 40 0 31 27 114 37 114 2 0 10 -15 18 -32z"/>
<path d="M3066 7985 c-22 -8 -55 -30 -75 -49 -32 -33 -36 -41 -39 -104 -4 -66
-3 -69 24 -87 16 -10 41 -33 57 -51 15 -18 47 -40 71 -49 74 -29 135 0 196 93
l15 23 45 -20 c51 -23 80 -27 80 -9 0 25 -76 145 -120 189 -71 71 -167 95
-254 64z m120 -140 c9 -14 13 -32 9 -45 -5 -17 -13 -21 -43 -18 -32 3 -37 7
-40 31 -7 55 44 77 74 32z"/>
<path d="M4730 6020 c-18 -12 -2 -12 25 0 13 6 15 9 5 9 -8 0 -22 -4 -30 -9z"/>
<path d="M4746 5980 c-18 -6 -18 -7 5 -13 33 -9 48 -7 24 3 -16 7 -17 9 -3 9
9 1 21 -5 25 -13 11 -19 78 -39 104 -31 19 6 19 8 3 19 -11 9 -14 18 -9 27 7
12 6 12 -7 1 -11 -9 -18 -9 -23 -3 -7 12 -89 12 -119 1z m104 -16 l25 -15 -25
7 c-14 3 -29 10 -34 15 -16 14 6 10 34 -7z m45 -14 c3 -5 1 -10 -4 -10 -6 0
-11 5 -11 10 0 6 2 10 4 10 3 0 8 -4 11 -10z"/>
<path d="M4950 5944 c24 -14 24 -15 2 -11 -12 3 -20 1 -17 -4 5 -7 65 -9 65
-2 0 4 -59 33 -67 33 -4 -1 3 -8 17 -16z"/>
<path d="M4928 5903 c7 -3 16 -2 19 1 4 3 -2 6 -13 5 -11 0 -14 -3 -6 -6z"/>
<path d="M4930 5886 c0 -2 7 -7 16 -10 8 -3 12 -2 9 4 -6 10 -25 14 -25 6z"/>
<path d="M5102 5852 c-14 -9 12 -26 58 -37 22 -5 23 -4 10 7 -8 8 -21 20 -28
28 -11 13 -12 12 -6 -4 5 -14 3 -17 -7 -14 -8 3 -13 11 -11 17 2 13 1 13 -16
3z"/>
<path d="M5085 5818 c20 -15 84 -48 92 -48 3 0 3 5 1 11 -2 6 -19 17 -38 24
-19 7 -44 16 -55 20 l-20 7 20 -14z"/>
<path d="M5386 5661 c-4 -5 3 -7 14 -4 23 6 26 13 6 13 -8 0 -17 -4 -20 -9z"/>
<path d="M5418 5653 c-26 -6 -22 -18 10 -33 15 -8 35 -21 44 -28 10 -8 26 -12
37 -9 12 3 18 0 15 -7 -6 -15 52 -37 74 -29 15 6 15 4 4 -9 -15 -19 -3 -31 18
-17 13 7 13 9 1 9 -8 0 -12 3 -8 6 12 12 28 -7 17 -21 -13 -16 34 -50 57 -41
10 4 13 2 10 -7 -3 -7 12 -22 37 -35 22 -13 35 -17 29 -11 -7 7 -13 20 -13 29
0 10 6 8 20 -10 10 -14 21 -22 24 -19 3 3 -8 18 -24 34 -27 26 -36 24 -31 -7
0 -4 -6 -5 -14 -2 -10 4 -12 11 -6 23 8 14 5 17 -12 17 -12 -1 -23 4 -24 9 -1
6 6 9 15 7 14 -2 15 -1 2 7 -9 7 -19 6 -27 -1 -8 -6 -17 -8 -20 -4 -4 4 -2 11
5 15 10 6 4 12 -17 21 -17 7 -29 16 -26 20 6 10 -20 32 -29 23 -3 -4 -13 3
-22 16 -11 15 -22 20 -36 15 -14 -4 -18 -2 -14 5 5 7 -7 9 -39 6 -38 -3 -45
-1 -35 10 13 15 3 23 -22 18z m137 -53 c3 -5 2 -10 -4 -10 -5 0 -13 5 -16 10
-3 6 -2 10 4 10 5 0 13 -4 16 -10z"/>
<path d="M5470 5639 c0 -5 5 -7 10 -4 6 3 10 8 10 11 0 2 -4 4 -10 4 -5 0 -10
-5 -10 -11z"/>
<path d="M5805 5401 c-3 -5 0 -13 6 -17 8 -5 9 -3 4 6 -5 8 -3 11 6 8 8 -3 13
-12 11 -19 -3 -11 -1 -12 10 -1 11 11 10 14 -2 22 -19 12 -27 12 -35 1z"/>
<path d="M4935 3060 c3 -5 8 -10 11 -10 2 0 4 5 4 10 0 6 -5 10 -11 10 -5 0
-7 -4 -4 -10z"/>
<path d="M7401 8763 l-443 -3 6 -31 c3 -17 6 -98 6 -180 l0 -149 34 0 c35 0
86 -36 185 -128 18 -18 35 -32 37 -32 2 0 4 36 4 80 l0 80 135 0 135 0 2 -82
c1 -46 1 -135 -1 -199 l-3 -116 55 -31 c31 -17 93 -61 137 -97 l82 -66 -4 306
-3 305 58 0 57 0 0 175 c0 161 -1 175 -17 173 -10 -2 -218 -4 -462 -5z"/>
<path d="M5636 8309 c-90 -10 -177 -53 -247 -123 -94 -93 -136 -210 -126 -352
13 -188 116 -335 275 -394 200 -75 348 -57 507 60 89 66 137 145 162 266 30
148 -15 291 -127 408 -118 123 -237 159 -444 135z m24 -256 c0 -54 3 -109 7
-122 l6 -24 -106 5 c-58 3 -110 9 -116 12 -18 12 22 99 65 141 36 35 115 84
137 85 4 0 7 -44 7 -97z m199 75 c94 -56 151 -119 171 -188 l9 -30 -115 0
-114 0 0 120 c0 66 3 120 6 120 4 0 23 -10 43 -22z m-191 -455 l-3 -98 -25 4
c-62 8 -149 78 -165 133 -4 13 -14 31 -23 41 -14 16 -9 17 102 17 l117 0 -3
-97z m356 75 c-3 -13 -21 -43 -38 -68 -33 -47 -119 -100 -162 -100 -23 0 -23
2 -22 95 l1 95 114 0 c114 0 114 0 107 -22z"/>
<path d="M7452 6006 c0 -673 -2 -1229 -6 -1235 -5 -8 -86 -11 -269 -11 -261 0
-307 -4 -307 -22 0 -13 51 -61 129 -123 35 -27 90 -73 121 -102 72 -64 80 -65
405 -61 l240 3 3 1272 c2 1242 2 1272 -17 1282 -10 6 -78 58 -151 116 -72 58
-136 105 -141 105 -5 0 -8 -501 -7 -1224z"/>
<path d="M1760 7101 c-30 -10 -71 -25 -90 -35 -71 -36 -270 -151 -270 -157 0
-3 17 -13 37 -23 20 -10 79 -45 130 -78 160 -103 238 -126 323 -92 22 9 40 18
40 20 0 12 -29 66 -57 106 -39 54 -58 144 -48 219 4 26 3 49 -2 52 -4 3 -33
-3 -63 -12z"/>
<path d="M4990 6718 c0 -211 3 -393 6 -405 4 -15 46 -42 147 -96 206 -108 187
-111 187 27 l0 116 170 0 170 0 0 -120 0 -120 -124 0 c-68 0 -138 -3 -155 -6
-31 -6 -31 -7 -11 -21 12 -8 73 -44 136 -79 122 -68 312 -196 459 -307 102
-77 341 -309 423 -409 30 -38 58 -68 63 -68 5 0 9 397 9 935 l0 935 -740 0
-740 0 0 -382z m680 -62 c0 -91 -3 -166 -7 -168 -5 -2 -83 -2 -175 0 l-167 4
5 81 c2 45 7 119 10 165 l6 82 164 0 164 0 0 -164z m474 3 c4 -89 4 -164 -1
-168 -4 -4 -81 -5 -170 -3 l-163 4 0 164 0 164 164 0 163 0 7 -161z m2 -419
l2 -120 -174 0 -174 0 0 120 0 120 173 0 172 0 1 -120z m13 -317 c29 -30 32
-40 27 -72 -13 -86 -125 -123 -187 -62 -49 50 -38 123 24 162 45 28 93 18 136
-28z"/>
<path d="M4436 6911 c-9 -14 9 -52 41 -89 l28 -32 118 6 117 7 0 59 0 58 -149
0 c-83 0 -152 -4 -155 -9z"/>
<path d="M6710 6860 l0 -60 299 0 299 0 6 31 c3 17 6 44 6 60 l0 29 -305 0
-305 0 0 -60z"/>
<path d="M4600 6643 c-38 -7 -43 -18 -30 -57 17 -53 52 -76 117 -76 l54 0 -3
68 -3 67 -55 1 c-30 1 -66 0 -80 -3z"/>
<path d="M6717 6643 c-4 -3 -7 -30 -7 -59 0 -45 3 -52 23 -58 12 -3 146 -6
298 -6 l277 0 6 23 c11 43 7 95 -10 101 -21 8 -579 8 -587 -1z"/>
<path d="M6764 6352 c-38 -3 -42 -6 -48 -34 -3 -17 -6 -44 -6 -60 l0 -29 303
3 302 3 3 63 3 63 -258 -3 c-142 -2 -277 -4 -299 -6z"/>
<path d="M6710 6000 l0 -60 305 0 c283 0 305 1 306 18 1 9 2 35 3 57 l1 40
-307 3 -308 2 0 -60z"/>
<path d="M6717 5763 c-4 -3 -7 -33 -7 -65 l0 -58 305 0 305 0 0 65 0 65 -298
0 c-164 0 -302 -3 -305 -7z"/>
<path d="M6710 5420 l0 -59 309 -3 309 -3 6 41 c3 22 3 50 -1 62 l-5 22 -309
0 -309 0 0 -60z"/>
<path d="M6736 5203 c-11 -12 -6 -79 8 -99 14 -18 31 -19 311 -23 l296 -3 -3
63 -3 64 -301 2 c-166 1 -304 0 -308 -4z"/>
<path d="M1995 2459 c-71 -3 -131 -7 -132 -8 -17 -9 -53 -61 -53 -77 0 -24 34
-58 70 -72 30 -11 1540 -16 4429 -13 2169 2 2084 0 2110 48 14 27 -20 80 -62
98 -19 7 -97 15 -192 19 -180 8 -1639 11 -3500 7 -687 -1 -1540 0 -1895 2
-355 2 -703 0 -775 -4z"/>
<path d="M2553 2023 c-42 -3 -56 -9 -73 -30 -29 -37 -26 -79 9 -114 l29 -29
264 -2 c439 -5 406 -7 439 30 40 45 40 91 -2 126 l-31 26 -291 -2 c-161 -1
-315 -3 -344 -5z"/>
<path d="M7065 2019 c-54 -32 -61 -91 -16 -141 l30 -33 328 3 c357 4 359 4
383 62 16 38 4 71 -35 96 -23 15 -65 18 -348 21 -234 3 -327 1 -342 -8z"/>
<path d="M3654 2001 c-30 -13 -54 -50 -54 -82 0 -35 49 -85 87 -90 15 -2 231
-1 478 3 248 4 897 5 1442 1 l993 -5 35 35 c19 19 35 43 35 52 0 23 -30 73
-48 80 -26 10 -2946 15 -2968 6z"/>
</g>
</svg>
